<mxfile host="app.diagrams.net" modified="2020-04-30T15:42:21.788Z" agent="5.0 (Macintosh; Intel Mac OS X 10_15_4) AppleWebKit/537.36 (KHTML, like Gecko) Chrome/80.0.3987.163 Safari/537.36" etag="mQAN8XkYpEyMjGNECoG3" version="13.0.2" classModifier="github">
  <diagram id="j6xY-HAz_z8t2t_g5744" name="Page-1">
    <mxGraphModel dx="704" dy="506" grid="1" gridSize="10" guides="1" tooltips="1" connect="1" arrows="1" fold="1" page="1" pageScale="1" pageWidth="827" pageHeight="1169" math="0" shadow="0">
      <root>
        <mxCell id="0" />
        <mxCell id="1" parent="0" />
        <mxCell id="qgV8qp_WMIgCkXEXzdDm-6" style="rounded=0;orthogonalLoop=1;jettySize=auto;html=1;exitX=0.75;exitY=1;exitDx=0;exitDy=0;entryX=0.5;entryY=0;entryDx=0;entryDy=0;dashed=1;strokeWidth=2;" parent="1" source="qgV8qp_WMIgCkXEXzdDm-1" target="qgV8qp_WMIgCkXEXzdDm-3" edge="1">
          <mxGeometry relative="1" as="geometry" />
        </mxCell>
        <mxCell id="qgV8qp_WMIgCkXEXzdDm-8" value="Develop" style="edgeLabel;html=1;align=center;verticalAlign=middle;resizable=0;points=[];" parent="qgV8qp_WMIgCkXEXzdDm-6" vertex="1" connectable="0">
          <mxGeometry x="-0.1007" y="-1" relative="1" as="geometry">
            <mxPoint y="-1" as="offset" />
          </mxGeometry>
        </mxCell>
        <mxCell id="qgV8qp_WMIgCkXEXzdDm-7" style="edgeStyle=none;rounded=0;orthogonalLoop=1;jettySize=auto;html=1;exitX=0.25;exitY=1;exitDx=0;exitDy=0;entryX=0.5;entryY=0;entryDx=0;entryDy=0;dashed=1;strokeWidth=2;" parent="1" source="qgV8qp_WMIgCkXEXzdDm-1" target="qgV8qp_WMIgCkXEXzdDm-4" edge="1">
          <mxGeometry relative="1" as="geometry" />
        </mxCell>
        <mxCell id="qgV8qp_WMIgCkXEXzdDm-9" value="Monitor" style="edgeLabel;html=1;align=center;verticalAlign=middle;resizable=0;points=[];" parent="qgV8qp_WMIgCkXEXzdDm-7" vertex="1" connectable="0">
          <mxGeometry x="-0.1743" y="1" relative="1" as="geometry">
            <mxPoint as="offset" />
          </mxGeometry>
        </mxCell>
        <mxCell id="qgV8qp_WMIgCkXEXzdDm-1" value="" style="shape=actor;whiteSpace=wrap;html=1;" parent="1" vertex="1">
          <mxGeometry x="360" y="100" width="40" height="50" as="geometry" />
        </mxCell>
        <mxCell id="qgV8qp_WMIgCkXEXzdDm-3" value="Project files" style="rounded=0;whiteSpace=wrap;html=1;" parent="1" vertex="1">
          <mxGeometry x="460" y="260" width="90" height="60" as="geometry" />
        </mxCell>
        <mxCell id="qgV8qp_WMIgCkXEXzdDm-10" value="Analyse" style="edgeStyle=none;rounded=0;orthogonalLoop=1;jettySize=auto;html=1;exitX=1;exitY=0.5;exitDx=0;exitDy=0;entryX=0;entryY=0.5;entryDx=0;entryDy=0;dashed=1;strokeWidth=2;" parent="1" source="qgV8qp_WMIgCkXEXzdDm-4" target="qgV8qp_WMIgCkXEXzdDm-3" edge="1">
          <mxGeometry relative="1" as="geometry" />
        </mxCell>
        <mxCell id="qgV8qp_WMIgCkXEXzdDm-4" value="Software metrics tool" style="rounded=0;whiteSpace=wrap;html=1;fillColor=#C9C9C9;strokeColor=#36393d;" parent="1" vertex="1">
          <mxGeometry x="210" y="260" width="90" height="60" as="geometry" />
        </mxCell>
        <mxCell id="qgV8qp_WMIgCkXEXzdDm-11" value="Software metrics&lt;br&gt;Software architecture&amp;nbsp;" style="text;html=1;strokeColor=none;fillColor=none;align=center;verticalAlign=middle;whiteSpace=wrap;rounded=0;" parent="1" vertex="1">
          <mxGeometry x="315" y="330" width="130" height="50" as="geometry" />
        </mxCell>
      </root>
    </mxGraphModel>
  </diagram>
</mxfile>
